<svg xmlns="http://www.w3.org/2000/svg" width="106" height="23" viewBox="860 6 106 23"><desc>  Created with Sketch.</desc><path d="M901.9 23.4L900.9 28.7 897 28.7 901.8 6.6 906.6 6.6 911 28.7 907.1 28.7 906.1 23.4 901.9 23.4 901.9 23.4ZM905.7 20.3L904.9 15.5C904.6 14.1 904.4 11.9 904.1 10.5L904 10.5C903.8 12 903.5 14.2 903.2 15.5L902.4 20.3 905.7 20.3 905.7 20.3ZM923.8 6L923.8 24.1C923.8 25.6 923.9 27.4 923.9 28.7L920.5 28.7 920.3 26.9 920.2 26.9C919.6 28 918.4 29 916.9 29 913.6 29 911.9 25.4 911.9 20.8 911.9 15.1 914.4 12.4 917 12.4 918.4 12.4 919.3 13.1 919.8 14.1L919.8 14.1 919.8 6 923.8 6 923.8 6ZM919.8 18.8C919.8 18.6 919.8 18.2 919.8 17.9 919.6 16.8 919 15.8 918.1 15.8 916.5 15.8 915.9 18.1 915.9 20.8 915.9 23.9 916.7 25.7 918 25.7 918.6 25.7 919.3 25.4 919.7 24.1 919.8 23.8 919.8 23.5 919.8 23.1L919.8 18.8 919.8 18.8ZM932 29C928.4 29 926.1 26 926.1 20.8 926.1 15 929 12.4 932.1 12.4 935.7 12.4 938 15.5 938 20.7 938 27.3 934.5 29 932.1 29L932 29 932 29ZM932.1 25.9C933.6 25.9 934 23.1 934 20.7 934 18.4 933.6 15.5 932 15.5 930.4 15.5 930 18.4 930 20.7 930 23.4 930.4 25.9 932.1 25.9L932.1 25.9 932.1 25.9ZM940.2 6L944.2 6 944.2 14.4 944.3 14.4C945.1 13.1 946.1 12.4 947.6 12.4 950.6 12.4 952.1 15.8 952.1 20.3 952.1 26 949.9 29 947 29 945.6 29 944.7 28.4 943.8 26.8L943.7 26.8 943.5 28.7 940.1 28.7C940.2 27.4 940.2 25.6 940.2 24.1L940.2 6 940.2 6ZM944.2 23C944.2 23.4 944.3 23.8 944.4 24 944.8 25.4 945.4 25.7 946 25.7 947.5 25.7 948.2 23.7 948.2 20.6 948.2 17.8 947.5 15.8 946 15.8 945.2 15.8 944.6 16.6 944.4 17.5 944.3 17.8 944.2 18.2 944.2 18.5L944.2 23 944.2 23ZM957.7 22C957.7 24.9 959.2 25.9 961.1 25.9 962.3 25.9 963.4 25.6 964.1 25.3L964.6 28.2C963.6 28.6 962 28.9 960.4 28.9 956.1 28.9 953.8 26 953.8 21 953.8 15.6 956.5 12.4 960 12.4 963.4 12.4 965.3 15.2 965.3 19.9 965.3 21 965.3 21.6 965.2 22L957.7 22 957.7 22ZM961.7 19.2C961.7 16.9 961 15.3 959.8 15.3 958.3 15.3 957.7 17.5 957.7 19.2L961.7 19.2 961.7 19.2ZM873 14.5L879.1 29 875.1 29 873.2 24.4 868.8 24.4 873 14.5ZM869.6 6L860 6 860 29 869.6 6ZM876.3 6L885.9 6 885.9 29 876.3 6Z" fill="#FFF"/></svg>
