<svg xmlns="http://www.w3.org/2000/svg" width="140" height="30" viewBox="318 3 140 30"><desc>  Created with Sketch.</desc><path d="M365.4 11.1L364 11.1 357.9 24.5 360.3 24.5 361.6 21.7 369.1 21.7 370.5 24.5 372.9 24.5 366.7 11.1 365.4 11.1ZM365.4 13.4L362.7 19.2 368 19.2 365.4 13.4ZM454.7 3L320.9 3C319.3 3 318 4.5 318 6.4L318 29.6C318 31.5 319.3 33 320.9 33L454.7 33C456.3 33 457.6 31.5 457.6 29.6L457.6 6.4C457.6 4.5 456.3 3 454.7 3ZM453.7 24.8C453.7 26.7 452.4 28.2 450.8 28.2L324.8 28.2C323.2 28.2 321.9 26.7 321.9 24.8L321.9 10.9C321.9 9 323.2 7.5 324.8 7.5L450.8 7.5C452.4 7.5 453.8 9 453.8 10.9L453.8 24.8 453.7 24.8ZM325.4 18L325.4 25 336.2 25 336.2 24.9C337.1 24.8 337.9 23.3 337.9 21.5 337.9 19.7 337.2 18.2 336.2 18 337.2 17.8 337.9 16.3 337.9 14.5 337.9 12.7 337.1 11.2 336.2 11.1L325.4 11 325.4 18ZM334.6 21.9L328 21.9 328 19 334.6 19C335.2 19.1 335.6 19.7 335.6 20.4 335.6 21.2 335.2 21.8 334.6 21.9ZM334.6 16.4L328 16.4 328 13.5 334.6 13.5C335.2 13.6 335.6 14.2 335.6 14.9 335.6 15.7 335.2 16.3 334.6 16.4ZM408.8 18.7L408.8 22.3 418.4 22.3 418.4 24.7 406.7 24.7 406.7 23.4 406.7 11.2 408.8 11.2 408.8 11.2 418.4 11.2 418.4 13.7 408.8 13.7 408.8 16.3 414.6 16.3 414.6 18.7 408.8 18.7ZM344.2 18.7L344.2 24.7 341.6 24.7 341.6 17.9 341.6 11 352.8 11.1C353.7 11.2 354.5 12.8 354.5 14.9 354.5 16.9 353.7 18.5 352.8 18.7L352.8 18.7 349 18.7 355.2 24.7 351.8 24.7 345.6 18.7 344.2 18.7ZM350.5 16.8L343.9 16.8 343.9 13.9 350.5 13.9C351.1 14 351.5 14.6 351.5 15.3 351.5 16.1 351.1 16.7 350.5 16.8ZM424.8 18.7L424.8 24.7 422.3 24.7 422.3 17.9 422.3 11 433.4 11.1C434.4 11.2 435.2 12.8 435.2 14.9 435.2 16.9 434.4 18.5 433.4 18.7L433.4 18.7 429.7 18.7 435.9 24.7 432.5 24.7 426.2 18.7 424.8 18.7ZM431.2 16.8L424.6 16.8 424.6 13.9 431.2 13.9C431.7 14 432.2 14.6 432.2 15.3 432.2 16.1 431.7 16.7 431.2 16.8ZM449 13.6L441.9 13.6 441.9 16.5 449.1 16.5 449.1 16.5C449.2 16.5 449.2 16.5 449.3 16.5 450.5 16.5 451.4 17.6 451.4 19L451.4 22.1C451.4 23.5 450.5 24.6 449.3 24.6 449.2 24.6 449.1 24.6 449 24.6L440.9 24.6 440.9 24.6C440.9 24.6 440.9 24.6 440.9 24.6 439.7 24.6 438.7 23.5 438.7 22.1L438.7 20.8 441.2 20.8 441.2 22 449 22 449 19.1 441.9 19.1C441.8 19.1 441.7 19.1 441.6 19.1 440.4 19.1 439.5 18 439.5 16.6L439.5 13.5C439.5 12.1 440.4 11 441.6 11 441.7 11 441.7 11 441.8 11L441.8 11 449.1 11 449.1 11C449.2 11 449.3 11 449.4 11 450.6 11 451.6 12.2 451.6 13.6L451.6 14.9 449 14.9 449 13.6ZM376.9 24.6L374.8 24.6 383.6 13.5 376.5 13.5 376.5 10.9 386.3 10.9 389 10.9 380.2 22 387.8 22 387.8 24.6 376.9 24.6 376.9 24.6ZM391.7 24.6L389.6 24.6 398.4 13.5 391.3 13.5 391.3 10.9 401.1 10.9 403.8 10.9 395.1 22 402.7 22 402.7 24.6 391.7 24.6 391.7 24.6Z" fill="#FFF"/></svg>
