<svg xmlns="http://www.w3.org/2000/svg" width="139" height="36" viewBox="0 0 139 36"><desc>  Created with Sketch.</desc><path d="M2.9 6.8L2.9 6.8 6.2 6.8C6.4 6.8 6.6 6.7 6.6 6.5 6.6 6.5 6.5 3.6 6.5 2.8L6.5 2.8C6.5 2.2 6.7 1.6 6.9 1.2L7 0.9C7 0.9 7 1 7 1L0.6 7.3C0.6 7.3 0.5 7.3 0.5 7.4 0.7 7.3 0.9 7.2 0.9 7.2 1.4 6.9 2.1 6.8 2.9 6.8L2.9 6.8ZM28.6 6.1C28.3 4.7 27.5 4 26.8 3.7 26 3.5 24.3 3.2 22.2 2.9 20.6 2.7 18.6 2.7 17.4 2.8 17.3 1.8 16.6 0.9 15.8 0.6 13.8-0.2 10.6 0 9.8 0.2 9.2 0.4 8.5 0.7 8.1 1.3 7.8 1.7 7.7 2.2 7.7 2.8 7.7 3.2 7.7 4.1 7.7 4.9 7.7 5.7 7.7 6.5 7.7 6.5 7.7 7.2 7.1 7.8 6.4 7.8L3.1 7.8C2.4 7.8 1.9 7.9 1.4 8.1 1 8.2 0.7 8.5 0.5 8.8 0.1 9.4 0 10.1 0 10.9 0 10.9 0 11.5 0.2 12.6 0.3 13.6 1.3 19.9 2.2 21.9 2.6 22.6 2.8 22.9 3.5 23.3 5.1 23.9 8.8 24.7 10.5 24.9 12.2 25.1 13.2 25.6 13.9 24.3 13.9 24.3 14 23.9 14.2 23.4 14.7 21.8 14.8 20.3 14.8 19.2 14.8 19.1 15 19.1 15 19.2 15 20 14.8 22.6 16.9 23.4 17.7 23.6 19.3 23.9 21 24.1 22.5 24.3 23.7 24.9 23.7 28.8 23.7 31.2 23.2 31.5 20.5 31.5 18.4 31.5 17.6 31.6 17.6 29.9 17.6 28.5 18.9 28.7 20 28.7 20.4 28.7 20.1 28.3 20.1 27.5 20.1 26.6 20.6 26.2 20.1 26.1 16.6 26.1 14.6 26.1 14.6 30.5 14.6 34.4 16.1 35.1 21 35.1 24.9 35.1 26.2 35 27.8 30.1 28.1 29.1 28.9 26.1 29.3 21.1 29.6 18 29.1 8.5 28.6 6.1L28.6 6.1ZM21.9 16.6C21.4 16.6 21 16.6 20.5 16.7 20.7 15.7 21.1 14.5 22.5 14.6 24.1 14.7 24.3 16.1 24.3 17.1 23.6 16.8 22.8 16.7 21.9 16.6ZM33.9 22L35.4 22 35.4 12.5 33.9 12.5 33.9 10.7 43.7 10.7 43.8 14.4 41.9 14.4 41.7 12.5 38 12.5 38 16.2 41.7 16.2 41.7 18 38 18 38 22 41.7 22 41.9 19.9 44 19.9 43.8 23.8 33.9 23.8 33.9 22 33.9 22ZM59.4 12.5L58.2 12.5 53.5 23.8 50.8 23.8 46.2 12.5 44.9 12.5 44.9 10.7 50.4 10.7 50.4 12.5 49.1 12.5 52.4 21.4 52.4 21.4 55.6 12.5 54 12.5 54 10.7 59.4 10.7 59.4 12.5 59.4 12.5ZM62.2 22L62.2 12.5 60.7 12.5 60.7 10.7 70.5 10.7 70.6 14.4 68.7 14.4 68.5 12.5 64.8 12.5 64.8 16.2 68.5 16.2 68.5 18 64.8 18 64.7 22 68.5 22 68.7 19.9 70.8 19.9 70.5 23.8 60.7 23.8 60.7 22 62.2 22ZM73.2 22L74.7 22 74.8 12.5 73.2 12.5 73.2 10.7 79.3 10.7C82.3 10.7 83.3 12.5 83.3 14.2 83.3 15.7 82.5 17 80.2 17.6L80.2 17.7C81.4 18 81.7 18.3 82.9 20.4 83.7 21.8 84 22 84.5 22 84.7 22 84.9 21.9 85 21.9L85 23.8 83.7 23.8C81.9 23.8 81.7 23.6 80.3 20.8 79.1 18.4 78.8 18.2 77.9 18.2L77.3 18.2 77.3 22 78.9 22 78.9 23.8 73.2 23.8 73.2 22ZM77.4 16.4L78.4 16.4C79.8 16.4 80.7 15.7 80.7 14.4 80.7 13.3 80.2 12.5 79 12.5L77.4 12.5 77.4 16.4ZM97 12.5L95.5 12.5 95.5 10.7 100.6 10.7 100.6 12.5 99.1 12.5 99.1 23.8 97.1 23.8 90.1 14.5 90.1 14.5 90 22 91.5 22 91.5 23.8 86.4 23.8 86.4 22 87.9 22 88 12.5 86.4 12.5 86.4 10.7 90.3 10.7 96.9 19.6 97 19.6 97 12.5ZM108 10.5C112.5 10.5 114.5 13.5 114.5 17.1 114.5 21.2 112 24.1 108 24.1 103.5 24.1 101.5 21.1 101.5 17.4 101.5 13.3 104 10.5 108 10.5ZM108 22C110.4 22 111.8 19.9 111.8 17.2 111.8 14.3 110.2 12.6 108 12.6 105.6 12.6 104.2 14.6 104.2 17.3 104.2 20.3 105.8 22 108 22ZM118.6 22L120.1 22 120.1 12.5 117.5 12.5 117.4 14.4 115.4 14.4 115.6 10.7 127.3 10.7 127.4 14.4 125.5 14.4 125.4 12.5 122.7 12.5 122.7 22 124.2 22 124.2 23.8 118.6 23.8 118.6 22ZM128.9 22L130.4 22 130.4 12.5 128.9 12.5 128.9 10.7 138.7 10.7 138.8 14.4 136.9 14.4 136.7 12.5 133 12.5 133 16.2 136.7 16.2 136.7 18 133 18 133 22 136.7 22 136.9 19.9 139 19.9 138.8 23.8 128.9 23.8 128.9 22 128.9 22Z" fill="#FFF"/></svg>
