<svg xmlns="http://www.w3.org/2000/svg" width="15" height="15" viewBox="1095 64 15 15"><desc>  Created with Sketch.</desc><path d="M1106.1 75.1C1106.4 74.1 1106.6 73 1106.7 71.9L1109.1 71.9C1109 73.4 1108.4 74.8 1107.5 75.9 1107 75.6 1106.6 75.3 1106.1 75.1L1106.1 75.1ZM1105.8 75.9C1106.2 76.1 1106.5 76.3 1106.8 76.5 1106.2 77 1105.6 77.4 1104.9 77.7 1105.2 77.1 1105.5 76.5 1105.8 75.9L1105.8 75.9ZM1099.3 75.9C1099.6 76.5 1099.9 77.2 1100.3 77.7 1099.5 77.5 1098.8 77 1098.2 76.5 1098.5 76.3 1098.9 76 1099.3 75.9L1099.3 75.9ZM1099.3 67.1C1098.9 66.9 1098.5 66.7 1098.2 66.5 1098.8 66 1099.5 65.6 1100.2 65.3 1099.8 65.9 1099.5 66.5 1099.3 67.1L1099.3 67.1ZM1105.8 67.1C1105.6 66.5 1105.3 65.9 1104.9 65.4 1105.6 65.6 1106.3 66 1106.8 66.5 1106.5 66.7 1106.2 66.9 1105.8 67.1L1105.8 67.1ZM1102.9 71.1L1102.9 68.7C1103.8 68.6 1104.6 68.5 1105.3 68.2 1105.6 69.1 1105.8 70.1 1105.8 71.1L1102.9 71.1ZM1102.9 71.9L1105.8 71.9C1105.8 72.9 1105.6 73.9 1105.3 74.8 1104.5 74.5 1103.7 74.4 1102.9 74.3L1102.9 71.9ZM1102.1 71.9L1102.1 74.3C1101.3 74.4 1100.5 74.5 1099.8 74.7 1099.5 73.8 1099.4 72.9 1099.3 71.9L1102.1 71.9ZM1102.1 71.1L1099.3 71.1C1099.4 70.1 1099.5 69.2 1099.8 68.3 1100.5 68.5 1101.3 68.6 1102.1 68.7L1102.1 71.1ZM1109.1 71.1L1106.7 71.1C1106.6 70 1106.5 68.9 1106.1 67.9 1106.6 67.7 1107 67.4 1107.5 67.1 1108.4 68.2 1109 69.6 1109.1 71.1L1109.1 71.1ZM1103.6 65C1104.2 65.7 1104.6 66.5 1105 67.4 1104.3 67.6 1103.7 67.8 1102.9 67.8L1102.9 64.9C1103.1 64.9 1103.4 64.9 1103.6 65L1103.6 65ZM1102.1 64.9L1102.1 67.8C1101.4 67.8 1100.7 67.6 1100.1 67.4 1100.5 66.5 1101 65.7 1101.6 65 1101.7 64.9 1101.9 64.9 1102.1 64.9L1102.1 64.9ZM1097.5 67.1C1098 67.5 1098.5 67.7 1099 67.9 1098.6 68.9 1098.5 70 1098.4 71.1L1095.9 71.1C1096 69.6 1096.6 68.2 1097.5 67.1L1097.5 67.1ZM1095.9 71.9L1098.4 71.9C1098.5 73 1098.7 74 1099 75 1098.5 75.3 1098 75.5 1097.5 75.9 1096.6 74.8 1096 73.4 1095.9 71.9L1095.9 71.9ZM1101.7 78.1C1101 77.3 1100.5 76.5 1100.1 75.5 1100.7 75.4 1101.4 75.2 1102.1 75.2L1102.1 78.1C1101.9 78.1 1101.8 78.1 1101.7 78.1L1101.7 78.1ZM1102.9 78.1L1102.9 75.2C1103.6 75.2 1104.3 75.4 1105 75.6 1104.6 76.5 1104.1 77.3 1103.5 78 1103.3 78.1 1103.1 78.1 1102.9 78.1L1102.9 78.1ZM1107.9 76.7C1109.2 75.3 1110 73.5 1110 71.5 1110 67.8 1107.3 64.8 1103.8 64.1 1103.8 64.1 1103.8 64.1 1103.8 64.1 1103.4 64 1103 64 1102.5 64 1098.4 64 1095 67.4 1095 71.5 1095 73.5 1095.8 75.4 1097.1 76.7 1097.1 76.7 1097.1 76.7 1097.1 76.7 1097.1 76.7 1097.1 76.7 1097.2 76.8 1098.5 78.1 1100.4 79 1102.5 79 1104.6 79 1106.5 78.2 1107.8 76.8 1107.8 76.8 1107.9 76.8 1107.9 76.7 1107.9 76.7 1107.9 76.7 1107.9 76.7L1107.9 76.7Z" fill="#BDC6CF"/></svg>
