<svg xmlns="http://www.w3.org/2000/svg" width="48" height="49" viewBox="19 19 48 49"><style>.a{fill:#43484D;}.b{fill:#43484D;opacity:0.3;}</style><desc>  Created with Sketch.</desc><g fill="none"><path d="M19.9 22.7L19.9 33.7 65.2 33.7 65.2 22.7C65.2 21.1 63.8 19.7 62.2 19.7L22.9 19.7C21.2 19.7 19.9 21.1 19.9 22.7" fill="#E0E7ED"/><path d="M62.2 65.3L22.8 65.3C21.7 65.3 20.7 64.3 20.7 63.2L20.7 34.7 64.3 34.7 64.3 63.2C64.3 64.3 63.3 65.3 62.2 65.3L62.2 65.3ZM20.7 22.9C20.7 21.7 21.7 20.8 22.8 20.8L62.2 20.8C63.3 20.8 64.3 21.7 64.3 22.9L64.3 33 20.7 33 20.7 22.9ZM62.2 19L22.8 19C20.7 19 19 20.7 19 22.8L19 22.9 19 33.8 19 63.2C19 65.3 20.7 67 22.8 67L62.2 67C64.3 67 66 65.3 66 63.2L66 33.8 66 22.9 66 22.8C66 20.7 64.3 19 62.2 19L62.2 19Z" class="a"/><path d="M36.8 45.3C36.4 45 35.9 45 35.6 45.3L30.9 50C30.6 50.3 30.6 50.9 30.9 51.2L35.6 55.9C35.7 56 35.9 56.1 36.2 56.1 36.4 56.1 36.6 56 36.8 55.9 37.1 55.5 37.1 55 36.8 54.7L32.7 50.6 36.8 46.5C37.1 46.2 37.1 45.7 36.8 45.3" class="a"/><path d="M47.6 45.3C47.3 45 46.7 45 46.4 45.3 46.1 45.7 46.1 46.2 46.4 46.5L50.5 50.6 46.4 54.7C46.1 55 46.1 55.5 46.4 55.9 46.6 56 46.8 56.1 47 56.1 47.2 56.1 47.4 56 47.6 55.9L52.3 51.2C52.4 51 52.5 50.8 52.5 50.6 52.5 50.4 52.4 50.1 52.3 50L47.6 45.3Z" class="a"/><path d="M44 42.4C43.5 42.2 43 42.5 42.9 42.9L38.7 56.5C38.5 56.9 38.8 57.4 39.2 57.5 39.3 57.6 39.4 57.6 39.5 57.6 39.8 57.6 40.2 57.4 40.3 57L44.5 43.4C44.7 43 44.4 42.5 44 42.4" class="a"/><path d="M29.3 26.7C29.3 27.8 28.4 28.6 27.4 28.6 26.3 28.6 25.5 27.8 25.5 26.7 25.5 25.7 26.3 24.8 27.4 24.8 28.4 24.8 29.3 25.7 29.3 26.7" class="a"/><path d="M35.3 26.7C35.3 27.8 34.4 28.6 33.4 28.6 32.3 28.6 31.5 27.8 31.5 26.7 31.5 25.7 32.3 24.8 33.4 24.8 34.4 24.8 35.3 25.7 35.3 26.7" class="b"/><path d="M41.3 26.7C41.3 27.8 40.4 28.6 39.4 28.6 38.3 28.6 37.5 27.8 37.5 26.7 37.5 25.7 38.3 24.8 39.4 24.8 40.4 24.8 41.3 25.7 41.3 26.7" class="b"/></g></svg>
