<svg xmlns="http://www.w3.org/2000/svg" width="52" height="49" viewBox="17 18 52 49"><style>.a{fill:#FEFEFE;}</style><desc>  Created with Sketch.</desc><g transform="translate(17 18)" fill="none"><path d="M13.1 14.7L9.2 14.7C8.7 14.7 8.3 14.3 8.3 13.9 8.3 13.4 8.7 13 9.2 13L13.1 13C13.5 13 13.9 13.4 13.9 13.9 13.9 14.3 13.5 14.7 13.1 14.7L13.1 14.7ZM20.9 14.7L17 14.7C16.5 14.7 16.1 14.3 16.1 13.9 16.1 13.4 16.5 13 17 13L20.9 13C21.4 13 21.7 13.4 21.7 13.9 21.7 14.3 21.4 14.7 20.9 14.7L20.9 14.7ZM28.7 14.7L24.8 14.7C24.3 14.7 24 14.3 24 13.9 24 13.4 24.3 13 24.8 13L28.7 13C29.2 13 29.5 13.4 29.5 13.9 29.5 14.3 29.2 14.7 28.7 14.7L28.7 14.7ZM44.3 14.7L40.4 14.7C40 14.7 39.6 14.3 39.6 13.9 39.6 13.4 40 13 40.4 13L44.3 13C44.8 13 45.2 13.4 45.2 13.9 45.2 14.3 44.8 14.7 44.3 14.7L44.3 14.7ZM1.8 16.4C1.7 16.4 1.5 16.3 1.3 16.2 0.9 15.9 0.9 15.3 1.2 15 2.2 13.7 3.7 13 5.3 13 5.7 13 6.1 13.4 6.1 13.9 6.1 14.3 5.7 14.7 5.3 14.7 4.2 14.7 3.2 15.2 2.5 16.1 2.3 16.3 2.1 16.4 1.8 16.4L1.8 16.4ZM50.9 17.7C50.5 17.7 50.2 17.5 50.1 17.1 49.7 16.1 48.9 15.3 47.9 14.9 47.5 14.8 47.3 14.3 47.4 13.8 47.6 13.4 48.1 13.2 48.5 13.3 50 13.9 51.1 15 51.7 16.5 51.8 17 51.6 17.5 51.2 17.6 51.1 17.7 51 17.7 50.9 17.7L50.9 17.7ZM0.8 24.1C0.4 24.1 0 23.7 0 23.2L0 19.3C0 18.8 0.4 18.4 0.8 18.4 1.3 18.4 1.7 18.8 1.7 19.3L1.7 23.2C1.7 23.7 1.3 24.1 0.8 24.1L0.8 24.1ZM51.2 25.6C50.7 25.6 50.3 25.2 50.3 24.8L50.3 20.8C50.3 20.3 50.7 19.9 51.2 19.9 51.6 19.9 52 20.3 52 20.8L52 24.8C52 25.2 51.6 25.6 51.2 25.6L51.2 25.6ZM0.8 32.1C0.4 32.1 0 31.7 0 31.2L0 27.2C0 26.8 0.4 26.4 0.8 26.4 1.3 26.4 1.7 26.8 1.7 27.2L1.7 31.2C1.7 31.7 1.3 32.1 0.8 32.1L0.8 32.1ZM51.2 33.6C50.7 33.6 50.3 33.2 50.3 32.7L50.3 28.7C50.3 28.3 50.7 27.9 51.2 27.9 51.6 27.9 52 28.3 52 28.7L52 32.7C52 33.2 51.6 33.6 51.2 33.6L51.2 33.6ZM1.1 40C0.8 40 0.4 39.8 0.3 39.4 0.1 38.8 0 38.2 0 37.6L0 35.2C0 34.7 0.4 34.3 0.8 34.3 1.3 34.3 1.7 34.7 1.7 35.2L1.7 37.6C1.7 38 1.8 38.5 1.9 38.9 2 39.3 1.8 39.8 1.4 39.9 1.3 40 1.2 40 1.1 40L1.1 40ZM50.2 41.3C50 41.3 49.8 41.3 49.6 41.1 49.3 40.8 49.2 40.3 49.5 39.9 50 39.3 50.3 38.5 50.3 37.6L50.3 36.7C50.3 36.2 50.7 35.9 51.2 35.9 51.6 35.9 52 36.2 52 36.7L52 37.6C52 38.8 51.6 40 50.8 41 50.7 41.2 50.4 41.3 50.2 41.3L50.2 41.3ZM7.6 43L5.3 43C4.7 43 4.1 42.9 3.5 42.7 3 42.5 2.8 42 3 41.6 3.1 41.1 3.6 40.9 4.1 41.1 4.4 41.2 4.9 41.3 5.3 41.3L7.6 41.3C8.1 41.3 8.5 41.7 8.5 42.1 8.5 42.6 8.1 43 7.6 43L7.6 43ZM15.5 43L11.6 43C11.1 43 10.7 42.6 10.7 42.1 10.7 41.7 11.1 41.3 11.6 41.3L15.5 41.3C15.9 41.3 16.3 41.7 16.3 42.1 16.3 42.6 15.9 43 15.5 43L15.5 43ZM23.3 43L19.4 43C18.9 43 18.5 42.6 18.5 42.1 18.5 41.7 18.9 41.3 19.4 41.3L23.3 41.3C23.7 41.3 24.1 41.7 24.1 42.1 24.1 42.6 23.7 43 23.3 43L23.3 43ZM31.1 43L27.2 43C26.7 43 26.3 42.6 26.3 42.1 26.3 41.7 26.7 41.3 27.2 41.3L31.1 41.3C31.6 41.3 31.9 41.7 31.9 42.1 31.9 42.6 31.6 43 31.1 43L31.1 43ZM42.8 43C42.3 43 42 42.6 42 42.1 42 41.7 42.3 41.3 42.8 41.3L46.7 41.3C47.2 41.3 47.6 41.7 47.6 42.1 47.6 42.6 47.2 43 46.8 43L46.8 42.1 46.7 43 42.8 43Z" style="fill-opacity:0.3;fill:#43484D"/><polygon points="22.9 42 12.2 42 12.2 13.6 22.9 13.6" fill="#E0E7ED"/><path d="M29.9 7L33.2 7" class="a"/><path d="M29.9 21L33.2 21" class="a"/><path d="M29.9 14L36.2 14" class="a"/><path d="M29.9 28L36.2 28" class="a"/><path d="M29.9 35L33.2 35" class="a"/><path d="M29.9 42L36.2 42" class="a"/><path d="M40.3 44.1C40.3 45.3 39.4 46.3 38.2 46.3L32.3 46.3C31.4 46.3 30.7 45.6 30.7 44.7L30.7 42.8 36 42.8C36.4 42.8 36.8 42.4 36.8 41.9 36.8 41.5 36.4 41.1 36 41.1L30.7 41.1 30.7 35.8 33 35.8C33.5 35.8 33.9 35.5 33.9 35 33.9 34.5 33.5 34.1 33 34.1L30.7 34.1 30.7 28.9 36 28.9C36.4 28.9 36.8 28.5 36.8 28 36.8 27.6 36.4 27.2 36 27.2L30.7 27.2 30.7 21.9 33 21.9C33.5 21.9 33.9 21.5 33.9 21.1 33.9 20.6 33.5 20.2 33 20.2L30.7 20.2 30.7 14.9 36 14.9C36.4 14.9 36.8 14.6 36.8 14.1 36.8 13.6 36.4 13.3 36 13.3L30.7 13.3 30.7 8 33 8C33.5 8 33.9 7.6 33.9 7.1 33.9 6.7 33.5 6.3 33 6.3L30.7 6.3 30.7 3.3C30.7 2.4 31.4 1.7 32.3 1.7L38.7 1.7C39.6 1.7 40.3 2.4 40.3 3.3L40.3 44.1ZM38.7 0L32.3 0C30.5 0 29 1.5 29 3.3L29 44.7C29 46.5 30.5 48 32.3 48L38.2 48C40.3 48 42 46.3 42 44.1L42 3.3C42 1.5 40.5 0 38.7 0L38.7 0Z" fill="#43484D"/><path d="M12.9 13.6L22.2 13.6" class="a"/><path d="M12.2 42L22.9 42" class="a"/><path d="M17.5 13.6L17.5 41.4" class="a"/></g></svg>
