<svg xmlns="http://www.w3.org/2000/svg" width="56" height="45" viewBox="15 20 56 45"><style>.a{fill:#43484D;opacity:0.3;}.b{fill:#43484D;}.c{fill:#FEFEFE;}</style><desc>  Created with Sketch.</desc><g fill="none"><path d="M18.4 47.2C18.4 47.2 18.3 47.1 18.2 47.1L15.6 46.3C15.2 46.2 14.9 45.7 15.1 45.3 15.2 44.8 15.7 44.6 16.1 44.7L18.7 45.5C19.1 45.6 19.4 46.1 19.2 46.6 19.1 46.9 18.8 47.2 18.4 47.2M26.1 49.5C26 49.5 25.9 49.5 25.8 49.5L22 48.3C21.6 48.2 21.3 47.7 21.4 47.2 21.6 46.8 22.1 46.5 22.5 46.7L26.3 47.9C26.8 48 27 48.5 26.9 48.9 26.8 49.3 26.4 49.5 26.1 49.5" class="a"/><path d="M63.2 48.2C63.1 48.2 63.1 48.1 63 48.1L59.1 47.1C58.7 47 58.4 46.5 58.5 46 58.6 45.6 59.1 45.3 59.6 45.4L63.4 46.5C63.9 46.6 64.1 47.1 64 47.5 63.9 47.9 63.6 48.2 63.2 48.2M69.7 49.9C69.6 49.9 69.5 49.9 69.4 49.9L66.8 49.2C66.4 49.1 66.1 48.6 66.2 48.1 66.4 47.7 66.8 47.4 67.3 47.5L69.9 48.2C70.3 48.4 70.6 48.8 70.5 49.3 70.4 49.7 70 49.9 69.7 49.9" class="a"/><path d="M49.1 21.6L28.6 21.6C26.9 21.6 25.6 23 25.6 24.6L25.6 61.1C25.6 62.8 26.9 64.1 28.6 64.1L57.5 64.1C59.2 64.1 60.5 62.8 60.5 61.1L60.5 33.3" fill="#E0E7ED"/><path d="M57.5 65L28.6 65C26.4 65 24.7 63.2 24.7 61.1L24.7 24.6C24.7 22.5 26.4 20.8 28.6 20.8L49.1 20.8C49.6 20.8 49.9 21.2 49.9 21.6 49.9 22.1 49.6 22.5 49.1 22.5L28.6 22.5C27.4 22.5 26.4 23.4 26.4 24.6L26.4 61.1C26.4 62.3 27.4 63.3 28.6 63.3L57.5 63.3C58.7 63.3 59.7 62.3 59.7 61.1L59.7 33.3C59.7 32.8 60 32.4 60.5 32.4 61 32.4 61.4 32.8 61.4 33.3L61.4 61.1C61.4 63.2 59.6 65 57.5 65" class="b"/><path d="M49.1 21.6L49.1 30.8C49.1 32.2 50.2 33.3 51.6 33.3L60.5 33.3 49.1 21.6Z" class="c"/><path d="M49.9 23.7L49.9 30.8C49.9 31.7 50.7 32.4 51.6 32.4L58.5 32.4 49.9 23.7ZM60.5 34.1L51.6 34.1C49.7 34.1 48.2 32.6 48.2 30.8L48.2 21.6C48.2 21.3 48.5 21 48.8 20.8 49.1 20.7 49.5 20.8 49.7 21L61.1 32.7C61.4 32.9 61.4 33.3 61.3 33.6 61.2 33.9 60.9 34.1 60.5 34.1L60.5 34.1Z" class="b"/><path d="M35.3 52.5C35.2 52.5 35.1 52.5 35.1 52.5L25.3 49.5C24.9 49.4 24.6 48.9 24.7 48.5 24.9 48 25.4 47.8 25.8 47.9L35.1 50.7 45.5 41.7C45.7 41.5 46 41.5 46.3 41.5L60.7 45.5C61.2 45.6 61.5 46.1 61.3 46.5 61.2 47 60.7 47.3 60.3 47.1L46.3 43.3 35.9 52.3C35.7 52.5 35.5 52.5 35.3 52.5" class="b"/><path d="M37.6 49.9C38.6 50.9 38.5 52.6 37.5 53.6 36.5 54.5 34.8 54.5 33.8 53.5 32.8 52.4 32.9 50.8 33.9 49.8 34.9 48.8 36.6 48.8 37.6 49.9" class="c"/><path d="M35.7 49.9C35.2 49.9 34.8 50.1 34.5 50.4 33.8 51.1 33.8 52.2 34.4 52.9 35.1 53.6 36.2 53.6 36.9 52.9 37.6 52.3 37.6 51.2 37 50.4 36.6 50.1 36.2 49.9 35.7 49.9M35.7 55.1C34.8 55.1 33.8 54.7 33.2 54 31.9 52.7 31.9 50.5 33.3 49.2 34.6 47.9 36.9 47.9 38.2 49.3 39.5 50.7 39.5 52.9 38.1 54.2 37.4 54.8 36.6 55.1 35.7 55.1" class="b"/><path d="M47.9 40.6C48.9 41.6 48.8 43.3 47.8 44.3 46.7 45.3 45.1 45.2 44.1 44.2 43.1 43.1 43.1 41.5 44.2 40.5 45.2 39.5 46.9 39.5 47.9 40.6" class="c"/></g></svg>
