<svg xmlns="http://www.w3.org/2000/svg" width="80" height="35" viewBox="189 1 80 35"><desc>  Created with Sketch.</desc><path d="M256 23.2C227.3 20.9 203.6 28 198.1 30.6 195.2 32 194.9 33.7 195.3 34.7 195.7 35.5 197.1 35.9 198.7 35 210.1 28.9 233.2 23.9 256 25.3 257.1 25.3 257.6 23.4 256 23.2ZM259.7 16.4C259.1 15.9 259.7 14.3 259.7 14.3 262.5 12.6 268 7.8 268 4.2 268 0.8 265.1-0.2 261.9 2.9 259.7 5 257.6 8.8 256.5 12.8 254.8 14.4 252.3 16.5 250 16.5 248.8 16.5 248.4 15.6 248.5 14.5 250.5 14.4 256 12.8 256 8.2 255.9 6.2 254.3 5.5 252.9 5.5 250.5 5.5 247.3 8 245.7 11.7 245.3 11.6 244.9 11.4 244.5 11.2 245 10.1 245.4 9.1 245.4 8.4 245.7 6.6 245 5.3 243.5 5.4 242.5 5.4 241.3 6.3 241 8.4 240.8 9.8 241.6 11.4 241.6 11.4 240.9 13.5 238.2 16.2 237.2 16.2 236.4 16.2 237.4 12.3 238.3 9.4 238.9 8.8 239.4 8.2 239.5 7.6 239.8 6.6 239.4 6.2 239.1 6 238.4 5.5 236.5 5.7 235.5 7.5 235.2 8 234.9 8.8 234.5 9.7 233.7 10.6 232.6 11.9 232.2 11.7 231.6 11.3 233.3 9 233.1 7.6 233 6.4 232 5.8 231 6 229.5 6.2 227.5 9.2 227.5 9.2 227.5 9.2 227.9 8.3 227.9 7.5 227.8 6.4 225.7 5.8 224.7 8 224.3 8.7 223.7 11.4 223.1 14 222.6 14.9 221 17.7 219.7 17.8 218.6 18 219.9 12.9 220.1 12.7 220.6 11.7 221.4 9.8 221.3 8.9 221.2 7.7 220.5 7.4 219.7 7.6 218.6 7.8 218 8.9 218 8.9 218 8.9 217.4 8 216 8.1 211.4 8.6 208.5 16.5 208.9 20.4 209 22.5 210.1 23.7 211.7 23.5 213.8 23.3 215.4 20.3 215.4 20.3 215.4 20.3 215.8 22.7 217.9 22.3 219.4 22.1 220.8 20.9 222 19.5 222 19.8 221.9 20 221.9 20 221.6 22 224.9 21.9 225.1 20.2 226.2 12.7 228.7 9.5 229.5 9.5 230.1 9.5 227.8 13.1 229.2 14.5 230.2 15.7 231.9 14.7 233.3 13.5 233.1 14.5 233 15.5 232.9 16.5 232.9 18.7 233.7 20.4 235.8 20.3 238.5 20.2 241.4 16.8 243.3 13.5 243.8 13.8 244.3 14.1 245 14.2 244.8 15 244.8 15.8 244.8 16.6 245 19.2 246.7 20.1 248.7 20 251 20 253.7 18.2 255.6 16.6 255.6 16.6 255.6 16.7 255.6 16.8 255.5 18 255.6 20.3 257.3 20.4 259.4 20.6 262.8 18.6 264.5 16.4 265.7 14.8 264.2 13.4 263.2 14.5 262 15.9 260.2 17 259.7 16.4ZM265 4.1C265.2 4.1 265.3 4.2 265.3 4.5 265.3 6.7 260 11.2 260 11.2 260 11.2 263.5 4.1 265 4.1L265 4.1ZM216.6 12C216.4 13.3 214.2 19.1 213 19.1 211.5 19.1 213.8 10.9 216.3 10.9 216.7 10.9 216.7 11.3 216.6 12ZM252.2 8.7C252.7 8.7 252.9 8.9 252.9 9.4 252.9 10.5 251.3 11.4 249.5 11.6 250.3 10 251.4 8.7 252.2 8.7ZM197.2 13.6C198.7 13.6 196 21.3 196.3 24.7 196.6 28 200.4 27.1 200.1 25.1 199.7 21.8 201.9 11.4 204.2 11.4 205.8 11.4 202.4 18.6 203.1 23.2 203.5 26.2 207.5 25.1 207.1 23.4 205.7 17.4 209.8 11.7 209.4 7.6 209.2 5.9 208.1 5 207 5 203.3 5 200.4 12.6 200.4 12.6 200.4 12.6 200.7 8.3 197.8 8.1 193.3 7.9 188.9 19 189 28.9 189 32.1 193 31.5 192.8 29 192.4 24.3 195 13.6 197.2 13.6Z" fill="#FFF"/></svg>
