<svg xmlns="http://www.w3.org/2000/svg" width="157" height="31" viewBox="507 3 157 31"><desc>  Created with Sketch.</desc><path d="M508 18.1C508 26.3 514.7 33 523.1 33 531.2 33 538 26.2 538 18.1 538 9.7 531.2 3 523.1 3 514.7 3 508 9.7 508 18.1ZM518.6 6.3L523.1 21.2 527.6 6.3 533.3 25.4 532.4 25.4C532.4 25.4 532.1 24.4 531.7 23.5 530.5 19.2 528.8 17.6 526.3 18.5 525.7 18.7 524.8 19.5 524.3 20.3 523.9 21 523.3 22.2 523.1 23.2 522.8 22.2 522.2 21 521.8 20.3 521.3 19.5 520.4 18.7 519.8 18.5 517.3 17.6 515.6 19.2 514.4 23.5 514 24.4 513.7 25.4 513.7 25.4L512.8 25.4 518.6 6.3ZM574.4 12.8C573.6 12.8 572.7 12.9 572 13.1 569.5 13.6 566.6 15.4 566.1 18.2 565.9 19.8 566.6 21.1 567.9 22 569.7 23 571.7 23.3 573.8 23.2 575.3 23.1 576.9 22.7 578.2 22 579.5 21.2 580.6 20.1 581.1 18.5 581.6 17.6 581.5 16.3 581 15.4 579.3 13.4 576.9 12.8 574.4 12.8L574.4 12.8ZM601.9 12.8C601.1 12.8 600.2 12.9 599.4 13.1 597 13.6 594.1 15.4 593.5 18.2 593.3 19.8 594.1 21.1 595.4 22 597.1 23 599.2 23.3 601.3 23.2 602.8 23.1 604.3 22.7 605.6 22 607 21.2 608.1 20.1 608.6 18.5 609 17.6 609 16.3 608.4 15.4 606.8 13.4 604.3 12.8 601.9 12.8L601.9 12.8ZM631.7 12.8C630.9 12.8 630 12.9 629.2 13.1 626.8 13.6 623.9 15.4 623.3 18.2 623.1 19.8 623.9 21.1 625.2 22 626.9 23 629 23.3 631.1 23.2 632.6 23.1 634.1 22.7 635.4 22 636.8 21.2 637.9 20.1 638.4 18.5 638.9 17.6 638.8 16.3 638.2 15.4 636.6 13.4 634.1 12.8 631.7 12.8L631.7 12.8ZM551 12.9L548.2 23.1 551.5 23.1C551.5 23.1 552.9 17.8 553 17.8 553 17.6 553.1 17.6 553 17.6 553.1 17.6 553.1 17.6 553.2 17.6L554.4 23.1 556.6 23.1 560.9 17.8C561 17.7 561 17.7 560.9 17.8L559.5 23.1 563.6 23.1 566.4 12.9 560.9 12.9 557.4 17.3 556.3 12.9 551 12.9ZM582.5 12.9L581.6 16.2 585.6 16.2C585.8 16.2 585.8 16.3 585.8 16.4L584.1 23.1 587.9 23.1 590 16.2 590 16.1 594.2 16.1 594.9 12.9 582.5 12.9ZM611.2 12.9C610.4 16.3 609.5 19.7 608.7 23.1L612.5 23.1 613.2 20.1 613.2 20.1 616.5 20.1C617 20.1 617.2 20.4 617.3 20.9L617.1 22.1C617.1 22.4 617.1 22.5 617.1 22.6 617.3 22.9 617.4 23 617.6 23.1L622.1 23.1C621.9 22.8 621.6 22.5 621.6 22.1 621.6 21.4 621.9 20.6 621.8 19.8 621.6 19.2 621 18.9 620.5 18.7 620.4 18.6 620.5 18.6 620.5 18.5 621.6 18.1 622.7 17.4 623.2 16.2 623.5 15.5 623.4 14.4 622.7 13.9 622.2 13.3 621.4 12.9 620.7 12.9L616 12.9 611.2 12.9ZM641 12.9L638.7 23.1 648.8 23.1 649.4 20.1 643.5 20.1C643.5 20.1 643.5 20.1 643.5 19.9L645.1 12.9 641 12.9ZM656.1 12.9L649.6 23.1 653 23.1 654.1 21.2 658.9 21.2C658.9 21.2 658.9 21.3 658.9 21.3L659.3 23.1 663.5 23.1 661.2 12.9 656.1 12.9ZM574.4 15.4C575.1 15.4 575.8 15.6 576.3 15.9 576.7 16.2 576.9 16.5 577.1 16.8 577.2 17.9 576.8 18.9 575.8 19.6 574.8 20.5 573.2 20.9 571.8 20.3 571.3 20.1 570.8 19.6 570.7 19 570.6 17.8 571.3 16.6 572.4 15.9 573 15.6 573.7 15.4 574.4 15.4L574.4 15.4ZM602.1 15.4C602.7 15.4 603.5 15.6 603.9 15.9 604.3 16.2 604.5 16.5 604.7 16.8 604.9 17.9 604.4 18.9 603.5 19.6 602.4 20.5 600.9 20.9 599.4 20.3 599 20.1 598.4 19.6 598.3 19 598.2 17.8 598.9 16.6 600 15.9 600.6 15.6 601.3 15.4 602.1 15.4L602.1 15.4ZM631.7 15.4C632.4 15.4 633.1 15.6 633.6 15.9 633.9 16.2 634.2 16.5 634.4 16.8 634.5 17.9 634 18.9 633.1 19.6 632.1 20.5 630.5 20.9 629.1 20.3 628.6 20.1 628.1 19.6 628 19 627.9 17.8 628.6 16.6 629.7 15.9 630.3 15.6 631 15.4 631.7 15.4L631.7 15.4ZM616.2 15.6L618.5 15.6C618.8 15.6 619 15.8 619.1 16.1 619.2 16.3 619.1 16.6 618.8 16.8 618.6 17.1 618.3 17.3 617.9 17.3L614 17.3 614.5 15.6 616.2 15.6ZM657.5 16.2C657.5 16.2 657.5 16.2 657.5 16.2L658.1 18.7 655.8 18.7 657.5 16.2 657.5 16.2 657.5 16.2Z" fill="#FFF"/></svg>
