<svg xmlns="http://www.w3.org/2000/svg" width="96" height="27" viewBox="714 5 96 27"><desc>  Created with Sketch.</desc><path d="M795.9 29.4C797.2 29.5 798.5 29.6 799.9 29.8L802.8 22.5 805.6 30.4C807 30.6 808.5 30.8 809.9 31L805 17.1 809.9 5 805.7 5 805.7 5.1 803 11.6 800.7 5 796.6 5 800.8 17 795.9 29.4ZM792.7 29.1L792.7 5 788.7 5 788.7 28.7C790 28.8 791.4 28.9 792.7 29.1ZM762 27.7C763.1 27.7 764.2 27.7 765.3 27.7L765.3 18.9 770.2 18.9 770.2 15.1 765.3 15.1 765.3 8.8 771 8.8 771 5 761.2 5 761.2 27.7C761.4 27.7 761.7 27.7 762 27.7ZM749.3 28C750.6 27.9 752 27.9 753.4 27.8L753.4 8.8 757.2 8.8 757.2 5 745.4 5 745.4 8.8 749.3 8.8 749.3 28ZM717.9 30.5L717.9 16.2 722.8 29.9C724.3 29.7 725.8 29.6 727.3 29.4L727.3 5 723.3 5 723.3 19.8 718.1 5 717.9 5 714 5 714 31 714 31C715.3 30.8 716.6 30.7 717.9 30.5ZM741.5 8.8L741.5 5 731.7 5 731.7 25.3 731.7 29C734.9 28.8 738.2 28.5 741.5 28.3L741.5 27.2 741.5 24.6C739.6 24.7 737.7 24.8 735.8 24.9L735.8 18.9 740.7 18.9 740.7 15.1 735.8 15.1 735.8 8.8 741.5 8.8ZM779.1 24.4L779.1 5 775 5 775 24.2 775 28C778.2 28.1 781.5 28.2 784.8 28.5L784.8 27.3 784.8 24.7C782.9 24.6 781 24.5 779.1 24.4Z" fill="#FFF"/></svg>
