<svg xmlns="http://www.w3.org/2000/svg" width="106" height="23" viewBox="860 6 106 23"><path d="M901.9 23.4l-1 5.3H897l4.8-22.1h4.8l4.4 22.1h-3.9l-1-5.3h-4.2zm3.8-3.1l-.8-4.8c-.3-1.4-.5-3.6-.8-5h-.1c-.2 1.5-.5 3.7-.8 5l-.8 4.8h3.3zM923.8 6v18.1c0 1.5.1 3.3.1 4.6h-3.4l-.2-1.8h-.1c-.6 1.1-1.8 2.1-3.3 2.1-3.3 0-5-3.6-5-8.2 0-5.7 2.5-8.4 5.1-8.4 1.4 0 2.3.7 2.8 1.7V6h4zm-4 12.8v-.9c-.2-1.1-.8-2.1-1.7-2.1-1.6 0-2.2 2.3-2.2 5 0 3.1.8 4.9 2.1 4.9.6 0 1.3-.3 1.7-1.6.1-.3.1-.6.1-1v-4.3zM932 29c-3.6 0-5.9-3-5.9-8.2 0-5.8 2.9-8.4 6-8.4 3.6 0 5.9 3.1 5.9 8.3 0 6.6-3.5 8.3-5.9 8.3h-.1zm.1-3.1c1.5 0 1.9-2.8 1.9-5.2 0-2.3-.4-5.2-2-5.2s-2 2.9-2 5.2c0 2.7.4 5.2 2.1 5.2zM940.2 6h4v8.4h.1c.8-1.3 1.8-2 3.3-2 3 0 4.5 3.4 4.5 7.9 0 5.7-2.2 8.7-5.1 8.7-1.4 0-2.3-.6-3.2-2.2h-.1l-.2 1.9h-3.4c.1-1.3.1-3.1.1-4.6V6zm4 17c0 .4.1.8.2 1 .4 1.4 1 1.7 1.6 1.7 1.5 0 2.2-2 2.2-5.1 0-2.8-.7-4.8-2.2-4.8-.8 0-1.4.8-1.6 1.7-.1.3-.2.7-.2 1V23zm13.5-1c0 2.9 1.5 3.9 3.4 3.9 1.2 0 2.3-.3 3-.6l.5 2.9c-1 .4-2.6.7-4.2.7-4.3 0-6.6-2.9-6.6-7.9 0-5.4 2.7-8.6 6.2-8.6 3.4 0 5.3 2.8 5.3 7.5 0 1.1 0 1.7-.1 2.1h-7.5zm4-2.8c0-2.3-.7-3.9-1.9-3.9-1.5 0-2.1 2.2-2.1 3.9h4zM873 14.5l6.1 14.5h-4l-1.9-4.6h-4.4l4.2-9.9zM869.6 6H860v23l9.6-23zm6.7 0h9.6v23l-9.6-23z" fill="#FFF"/></svg>