<svg xmlns="http://www.w3.org/2000/svg" width="140" height="30" viewBox="318 3 140 30"><path d="M365.4 11.1H364l-6.1 13.4h2.4l1.3-2.8h7.5l1.4 2.8h2.4l-6.2-13.4h-1.3zm0 2.3l-2.7 5.8h5.3l-2.6-5.8zM454.7 3H320.9c-1.6 0-2.9 1.5-2.9 3.4v23.2c0 1.9 1.3 3.4 2.9 3.4h133.8c1.6 0 2.9-1.5 2.9-3.4V6.4c0-1.9-1.3-3.4-2.9-3.4zm-1 21.8c0 1.9-1.3 3.4-2.9 3.4h-126c-1.6 0-2.9-1.5-2.9-3.4V10.9c0-1.9 1.3-3.4 2.9-3.4h126c1.6 0 3 1.5 3 3.4v13.9h-.1zM325.4 18v7h10.8v-.1c.9-.1 1.7-1.6 1.7-3.4 0-1.8-.7-3.3-1.7-3.5 1-.2 1.7-1.7 1.7-3.5s-.8-3.3-1.7-3.4l-10.8-.1v7zm9.2 3.9H328V19h6.6c.6.1 1 .7 1 1.4 0 .8-.4 1.4-1 1.5zm0-5.5H328v-2.9h6.6c.6.1 1 .7 1 1.4 0 .8-.4 1.4-1 1.5zm74.2 2.3v3.6h9.6v2.4h-11.7V11.2h11.7v2.5h-9.6v2.6h5.8v2.4h-5.8zm-64.6 0v6h-2.6V11l11.2.1c.9.1 1.7 1.7 1.7 3.8 0 2-.8 3.6-1.7 3.8H349l6.2 6h-3.4l-6.2-6h-1.4zm6.3-1.9h-6.6v-2.9h6.6c.6.1 1 .7 1 1.4 0 .8-.4 1.4-1 1.5zm74.3 1.9v6h-2.5V11l11.1.1c1 .1 1.8 1.7 1.8 3.8 0 2-.8 3.6-1.8 3.8h-3.7l6.2 6h-3.4l-6.3-6h-1.4zm6.4-1.9h-6.6v-2.9h6.6c.5.1 1 .7 1 1.4 0 .8-.5 1.4-1 1.5zm17.8-3.2h-7.1v2.9h7.4c1.2 0 2.1 1.1 2.1 2.5v3.1c0 1.4-.9 2.5-2.1 2.5h-8.4c-1.2 0-2.2-1.1-2.2-2.5v-1.3h2.5V22h7.8v-2.9H441.6c-1.2 0-2.1-1.1-2.1-2.5v-3.1c0-1.4.9-2.5 2.1-2.5h7.8c1.2 0 2.2 1.2 2.2 2.6v1.3H449v-1.3zm-72.1 11h-2.1l8.8-11.1h-7.1v-2.6H389L380.2 22h7.6v2.6h-10.9zm14.8 0h-2.1l8.8-11.1h-7.1v-2.6h12.5L395.1 22h7.6v2.6h-11z" fill="#FFF"/></svg>