<svg xmlns="http://www.w3.org/2000/svg" width="139" height="36" viewBox="0 0 139 36"><path d="M2.9 6.8h3.3c.2 0 .4-.1.4-.3 0 0-.1-2.9-.1-3.7 0-.6.2-1.2.4-1.6L7 .9V1L.6 7.3s-.1 0-.1.1l.4-.2c.5-.3 1.2-.4 2-.4zm25.7-.7c-.3-1.4-1.1-2.1-1.8-2.4-.8-.2-2.5-.5-4.6-.8-1.6-.2-3.6-.2-4.8-.1-.1-1-.8-1.9-1.6-2.2-2-.8-5.2-.6-6-.4-.6.2-1.3.5-1.7 1.1-.3.4-.4.9-.4 1.5v3.7c0 .7-.6 1.3-1.3 1.3H3.1c-.7 0-1.2.1-1.7.3-.4.1-.7.4-.9.7-.4.6-.5 1.3-.5 2.1 0 0 0 .6.2 1.7.1 1 1.1 7.3 2 9.3.4.7.6 1 1.3 1.4 1.6.6 5.3 1.4 7 1.6 1.7.2 2.7.7 3.4-.6 0 0 .1-.4.3-.9.5-1.6.6-3.1.6-4.2 0-.1.2-.1.2 0 0 .8-.2 3.4 1.9 4.2.8.2 2.4.5 4.1.7 1.5.2 2.7.8 2.7 4.7 0 2.4-.5 2.7-3.2 2.7-2.1 0-2.9.1-2.9-1.6 0-1.4 1.3-1.2 2.4-1.2.4 0 .1-.4.1-1.2 0-.9.5-1.3 0-1.4-3.5 0-5.5 0-5.5 4.4 0 3.9 1.5 4.6 6.4 4.6 3.9 0 5.2-.1 6.8-5 .3-1 1.1-4 1.5-9 .3-3.1-.2-12.6-.7-15zm-6.7 10.5c-.5 0-.9 0-1.4.1.2-1 .6-2.2 2-2.1 1.6.1 1.8 1.5 1.8 2.5-.7-.3-1.5-.4-2.4-.5zm12 5.4h1.5v-9.5h-1.5v-1.8h9.8l.1 3.7h-1.9l-.2-1.9H38v3.7h3.7V18H38v4h3.7l.2-2.1H44l-.2 3.9h-9.9V22zm25.5-9.5h-1.2l-4.7 11.3h-2.7l-4.6-11.3h-1.3v-1.8h5.5v1.8h-1.3l3.3 8.9 3.2-8.9H54v-1.8h5.4v1.8zm2.8 9.5v-9.5h-1.5v-1.8h9.8l.1 3.7h-1.9l-.2-1.9h-3.7v3.7h3.7V18h-3.7l-.1 4h3.8l.2-2.1h2.1l-.3 3.9h-9.8V22h1.5zm11 0h1.5l.1-9.5h-1.6v-1.8h6.1c3 0 4 1.8 4 3.5 0 1.5-.8 2.8-3.1 3.4v.1c1.2.3 1.5.6 2.7 2.7.8 1.4 1.1 1.6 1.6 1.6.2 0 .4-.1.5-.1v1.9h-1.3c-1.8 0-2-.2-3.4-3-1.2-2.4-1.5-2.6-2.4-2.6h-.6V22h1.6v1.8h-5.7V22zm4.2-5.6h1c1.4 0 2.3-.7 2.3-2 0-1.1-.5-1.9-1.7-1.9h-1.6v3.9zM97 12.5h-1.5v-1.8h5.1v1.8h-1.5v11.3h-2l-7-9.3L90 22h1.5v1.8h-5.1V22h1.5l.1-9.5h-1.6v-1.8h3.9l6.6 8.9h.1v-7.1zm11-2c4.5 0 6.5 3 6.5 6.6 0 4.1-2.5 7-6.5 7-4.5 0-6.5-3-6.5-6.7 0-4.1 2.5-6.9 6.5-6.9zm0 11.5c2.4 0 3.8-2.1 3.8-4.8 0-2.9-1.6-4.6-3.8-4.6-2.4 0-3.8 2-3.8 4.7 0 3 1.6 4.7 3.8 4.7zm10.6 0h1.5v-9.5h-2.6l-.1 1.9h-2l.2-3.7h11.7l.1 3.7h-1.9l-.1-1.9h-2.7V22h1.5v1.8h-5.6V22zm10.3 0h1.5v-9.5h-1.5v-1.8h9.8l.1 3.7h-1.9l-.2-1.9H133v3.7h3.7V18H133v4h3.7l.2-2.1h2.1l-.2 3.9h-9.9V22z" fill="#FFF"/></svg>