<svg xmlns="http://www.w3.org/2000/svg" width="15" height="15" viewBox="1095 64 15 15"><path d="M1106.1 75.1c.3-1 .5-2.1.6-3.2h2.4c-.1 1.5-.7 2.9-1.6 4-.5-.3-.9-.6-1.4-.8zm-.3.8c.4.2.7.4 1 .6-.6.5-1.2.9-1.9 1.2l.9-1.8zm-6.5 0c.3.6.6 1.3 1 1.8-.8-.2-1.5-.7-2.1-1.2.3-.2.7-.5 1.1-.6zm0-8.8c-.4-.2-.8-.4-1.1-.6.6-.5 1.3-.9 2-1.2-.4.6-.7 1.2-.9 1.8zm6.5 0c-.2-.6-.5-1.2-.9-1.7.7.2 1.4.6 1.9 1.1-.3.2-.6.4-1 .6zm-2.9 4v-2.4c.9-.1 1.7-.2 2.4-.5.3.9.5 1.9.5 2.9h-2.9zm0 .8h2.9c0 1-.2 2-.5 2.9-.8-.3-1.6-.4-2.4-.5v-2.4zm-.8 0v2.4c-.8.1-1.6.2-2.3.4-.3-.9-.4-1.8-.5-2.8h2.8zm0-.8h-2.8c.1-1 .2-1.9.5-2.8.7.2 1.5.3 2.3.4v2.4zm7 0h-2.4c-.1-1.1-.2-2.2-.6-3.2.5-.2.9-.5 1.4-.8.9 1.1 1.5 2.5 1.6 4zm-5.5-6.1c.6.7 1 1.5 1.4 2.4-.7.2-1.3.4-2.1.4v-2.9c.2 0 .5 0 .7.1zm-1.5-.1v2.9c-.7 0-1.4-.2-2-.4.4-.9.9-1.7 1.5-2.4.1-.1.3-.1.5-.1zm-4.6 2.2c.5.4 1 .6 1.5.8-.4 1-.5 2.1-.6 3.2h-2.5c.1-1.5.7-2.9 1.6-4zm-1.6 4.8h2.5c.1 1.1.3 2.1.6 3.1-.5.3-1 .5-1.5.9-.9-1.1-1.5-2.5-1.6-4zm5.8 6.2c-.7-.8-1.2-1.6-1.6-2.6.6-.1 1.3-.3 2-.3v2.9h-.4zm1.2 0v-2.9c.7 0 1.4.2 2.1.4-.4.9-.9 1.7-1.5 2.4-.2.1-.4.1-.6.1zm5-1.4c1.3-1.4 2.1-3.2 2.1-5.2 0-3.7-2.7-6.7-6.2-7.4-.4-.1-.8-.1-1.3-.1-4.1 0-7.5 3.4-7.5 7.5 0 2 .8 3.9 2.1 5.2l.1.1c1.3 1.3 3.2 2.2 5.3 2.2 2.1 0 4-.8 5.3-2.2 0 0 .1 0 .1-.1z" fill="#BDC6CF"/></svg>