<svg xmlns="http://www.w3.org/2000/svg" width="48" height="49" viewBox="19 19 48 49"><style>.a,.b{fill:#43484d}.b{opacity:.3}</style><g fill="none"><path d="M19.9 22.7v11h45.3v-11c0-1.6-1.4-3-3-3H22.9c-1.7 0-3 1.4-3 3" fill="#E0E7ED"/><path d="M62.2 65.3H22.8c-1.1 0-2.1-1-2.1-2.1V34.7h43.6v28.5c0 1.1-1 2.1-2.1 2.1zM20.7 22.9c0-1.2 1-2.1 2.1-2.1h39.4c1.1 0 2.1.9 2.1 2.1V33H20.7V22.9zM62.2 19H22.8c-2.1 0-3.8 1.7-3.8 3.8v40.4c0 2.1 1.7 3.8 3.8 3.8h39.4c2.1 0 3.8-1.7 3.8-3.8V22.8c0-2.1-1.7-3.8-3.8-3.8z" class="a"/><path d="M36.8 45.3c-.4-.3-.9-.3-1.2 0L30.9 50c-.3.3-.3.9 0 1.2l4.7 4.7c.1.1.3.2.6.2.2 0 .4-.1.6-.2.3-.4.3-.9 0-1.2l-4.1-4.1 4.1-4.1c.3-.3.3-.8 0-1.2M47.6 45.3c-.3-.3-.9-.3-1.2 0-.3.4-.3.9 0 1.2l4.1 4.1-4.1 4.1c-.3.3-.3.8 0 1.2.2.1.4.2.6.2.2 0 .4-.1.6-.2l4.7-4.7c.1-.2.2-.4.2-.6 0-.2-.1-.5-.2-.6l-4.7-4.7zM44 42.4c-.5-.2-1 .1-1.1.5l-4.2 13.6c-.2.4.1.9.5 1 .1.1.2.1.3.1.3 0 .7-.2.8-.6l4.2-13.6c.2-.4-.1-.9-.5-1M29.3 26.7c0 1.1-.9 1.9-1.9 1.9-1.1 0-1.9-.8-1.9-1.9 0-1 .8-1.9 1.9-1.9 1 0 1.9.9 1.9 1.9" class="a"/><path d="M35.3 26.7c0 1.1-.9 1.9-1.9 1.9-1.1 0-1.9-.8-1.9-1.9 0-1 .8-1.9 1.9-1.9 1 0 1.9.9 1.9 1.9M41.3 26.7c0 1.1-.9 1.9-1.9 1.9-1.1 0-1.9-.8-1.9-1.9 0-1 .8-1.9 1.9-1.9 1 0 1.9.9 1.9 1.9" class="b"/></g></svg>