<svg xmlns="http://www.w3.org/2000/svg" width="56" height="45" viewBox="15 20 56 45"><style>.a{opacity:.3}.a,.b{fill:#43484d}.c{fill:#fefefe}</style><g fill="none"><path d="M18.4 47.2s-.1-.1-.2-.1l-2.6-.8c-.4-.1-.7-.6-.5-1 .1-.5.6-.7 1-.6l2.6.8c.4.1.7.6.5 1.1-.1.3-.4.6-.8.6m7.7 2.3h-.3L22 48.3c-.4-.1-.7-.6-.6-1.1.2-.4.7-.7 1.1-.5l3.8 1.2c.5.1.7.6.6 1-.1.4-.5.6-.8.6M63.2 48.2c-.1 0-.1-.1-.2-.1l-3.9-1c-.4-.1-.7-.6-.6-1.1.1-.4.6-.7 1.1-.6l3.8 1.1c.5.1.7.6.6 1-.1.4-.4.7-.8.7m6.5 1.7h-.3l-2.6-.7c-.4-.1-.7-.6-.6-1.1.2-.4.6-.7 1.1-.6l2.6.7c.4.2.7.6.6 1.1-.1.4-.5.6-.8.6" class="a"/><path d="M49.1 21.6H28.6c-1.7 0-3 1.4-3 3v36.5c0 1.7 1.3 3 3 3h28.9c1.7 0 3-1.3 3-3V33.3" fill="#E0E7ED"/><path d="M57.5 65H28.6c-2.2 0-3.9-1.8-3.9-3.9V24.6c0-2.1 1.7-3.8 3.9-3.8h20.5c.5 0 .8.4.8.8 0 .5-.3.9-.8.9H28.6c-1.2 0-2.2.9-2.2 2.1v36.5c0 1.2 1 2.2 2.2 2.2h28.9c1.2 0 2.2-1 2.2-2.2V33.3c0-.5.3-.9.8-.9s.9.4.9.9v27.8c0 2.1-1.8 3.9-3.9 3.9" class="b"/><path d="M49.1 21.6v9.2c0 1.4 1.1 2.5 2.5 2.5h8.9L49.1 21.6z" class="c"/><path d="M49.9 23.7v7.1c0 .9.8 1.6 1.7 1.6h6.9l-8.6-8.7zm10.6 10.4h-8.9c-1.9 0-3.4-1.5-3.4-3.3v-9.2c0-.3.3-.6.6-.8.3-.1.7 0 .9.2l11.4 11.7c.3.2.3.6.2.9-.1.3-.4.5-.8.5zM35.3 52.5h-.2l-9.8-3c-.4-.1-.7-.6-.6-1 .2-.5.7-.7 1.1-.6l9.3 2.8 10.4-9c.2-.2.5-.2.8-.2l14.4 4c.5.1.8.6.6 1-.1.5-.6.8-1 .6l-14-3.8-10.4 9c-.2.2-.4.2-.6.2" class="b"/><path d="M37.6 49.9c1 1 .9 2.7-.1 3.7-1 .9-2.7.9-3.7-.1-1-1.1-.9-2.7.1-3.7s2.7-1 3.7.1" class="c"/><path d="M35.7 49.9c-.5 0-.9.2-1.2.5-.7.7-.7 1.8-.1 2.5.7.7 1.8.7 2.5 0 .7-.6.7-1.7.1-2.5-.4-.3-.8-.5-1.3-.5m0 5.2c-.9 0-1.9-.4-2.5-1.1-1.3-1.3-1.3-3.5.1-4.8 1.3-1.3 3.6-1.3 4.9.1 1.3 1.4 1.3 3.6-.1 4.9-.7.6-1.5.9-2.4.9" class="b"/><path d="M47.9 40.6c1 1 .9 2.7-.1 3.7-1.1 1-2.7.9-3.7-.1-1-1.1-1-2.7.1-3.7 1-1 2.7-1 3.7.1" class="c"/></g></svg>