<svg width="74" height="74" viewBox="149 59 74 74" xmlns="http://www.w3.org/2000/svg" xmlns:xlink="http://www.w3.org/1999/xlink"><defs><linearGradient x1="-46.977%" y1="-44.825%" x2="102%" y2="101%" id="c"><stop stop-color="#50B4AC" offset="0%"/><stop stop-color="#3E9BC9" offset="66.424%"/><stop stop-color="#358ED7" offset="100%"/></linearGradient><rect id="a" width="68" height="68" rx="14"/><filter x="-50%" y="-50%" width="200%" height="200%" filterUnits="objectBoundingBox" id="b"><feOffset dx="2" dy="2" in="SourceAlpha" result="shadowOffsetOuter1"/><feGaussianBlur stdDeviation="1.5" in="shadowOffsetOuter1" result="shadowBlurOuter1"/><feColorMatrix values="0 0 0 0 0 0 0 0 0 0 0 0 0 0 0 0 0 0 0.125254755 0" in="shadowBlurOuter1"/></filter><linearGradient x1="-46.977%" y1="-44.825%" x2="102%" y2="101%" id="d"><stop stop-color="#50B4AC" offset="0%"/><stop stop-color="#358ED7" offset="100%"/></linearGradient><linearGradient x1="-46.977%" y1="-44.825%" x2="102%" y2="101%" id="f"><stop stop-color="#0B3834" offset="0%"/><stop stop-color="#358ED7" offset="100%"/></linearGradient></defs><g fill="none" fill-rule="evenodd" transform="translate(150 60)"><mask id="e" fill="#fff"><use xlink:href="#a"/></mask><use fill="#000" filter="url(#b)" xlink:href="#a"/><use fill="url(#c)" xlink:href="#a"/><circle fill="url(#d)" style="mix-blend-mode:overlay" mask="url(#e)" cx="9" cy="69" r="49"/><path d="M63 95c27.062 0 49-21.938 49-49S90.062-3 63-3 14 18.938 14 46s21.938 49 49 49z" fill="url(#f)" style="mix-blend-mode:overlay" mask="url(#e)"/><path d="M53.962 27.7c-.01-.108-.03-.226-.03-.325 0-.66.365-1.181 1.113-1.181.719 0 1.073.472 1.073.994 0 .463-.246.847-.817 1.201l-1.053.66c-1.113.689-1.497 1.545-1.516 2.638h4.617v-1.043h-3.16c.088-.315.344-.542.65-.729l1.24-.768c.768-.472 1.23-1.152 1.23-1.979 0-1.092-.836-2.008-2.244-2.008-1.447 0-2.274.994-2.274 2.097 0 .128.02.276.03.364l1.141.079zm-6.035.797c0-.807.138-1.427.453-1.82.217-.286.522-.473.985-.473.462 0 .758.187.984.472.305.394.443 1.014.443 1.821 0 .808-.138 1.428-.443 1.822a1.17 1.17 0 0 1-.984.472c-.463 0-.768-.187-.985-.472-.305-.394-.453-1.014-.453-1.822zm-1.171 0c0 .847.138 1.644.57 2.294.414.62 1.084 1.044 2.039 1.044.955 0 1.614-.424 2.028-1.044.433-.65.57-1.447.57-2.294 0-.846-.137-1.644-.57-2.293-.414-.62-1.073-1.044-2.028-1.044-.955 0-1.625.423-2.038 1.044-.433.65-.571 1.447-.571 2.293zM20.543 44.2V33.045c0-2.77 1.715-4.692 4.267-4.692 2.743 0 3.886 1.846 3.886 4.23V44.2h3.582V33.007c0-2.654 1.714-4.654 4.229-4.654 2.705 0 3.886 1.807 3.886 4.23V44.2h3.543V32.199c0-4.847-3.124-7.039-6.324-7.039-2.324 0-4.687.846-6.134 3.5-.99-2.385-3.2-3.5-5.487-3.5-2.133 0-4.42.962-5.562 3V25.7H17V44.2h3.543z" fill="#FFF" mask="url(#e)"/></g></svg>