<svg xmlns="http://www.w3.org/2000/svg" width="52" height="49" viewBox="17 18 52 49"><style>.a{fill:#fefefe}</style><g fill="none"><path d="M30.1 32.7h-3.9c-.5 0-.9-.4-.9-.8 0-.5.4-.9.9-.9h3.9c.4 0 .8.4.8.9 0 .4-.4.8-.8.8zm7.8 0H34c-.5 0-.9-.4-.9-.8 0-.5.4-.9.9-.9h3.9c.5 0 .8.4.8.9 0 .4-.3.8-.8.8zm7.8 0h-3.9c-.5 0-.8-.4-.8-.8 0-.5.3-.9.8-.9h3.9c.5 0 .8.4.8.9 0 .4-.3.8-.8.8zm15.6 0h-3.9c-.4 0-.8-.4-.8-.8 0-.5.4-.9.8-.9h3.9c.5 0 .9.4.9.9 0 .4-.4.8-.9.8zm-42.5 1.7c-.1 0-.3-.1-.5-.2-.4-.3-.4-.9-.1-1.2 1-1.3 2.5-2 4.1-2 .4 0 .8.4.8.9 0 .4-.4.8-.8.8-1.1 0-2.1.5-2.8 1.4-.2.2-.4.3-.7.3zm49.1 1.3c-.4 0-.7-.2-.8-.6-.4-1-1.2-1.8-2.2-2.2-.4-.1-.6-.6-.5-1.1.2-.4.7-.6 1.1-.5 1.5.6 2.6 1.7 3.2 3.2.1.5-.1 1-.5 1.1-.1.1-.2.1-.3.1zm-50.1 6.4c-.4 0-.8-.4-.8-.9v-3.9c0-.5.4-.9.8-.9.5 0 .9.4.9.9v3.9c0 .5-.4.9-.9.9zm50.4 1.5c-.5 0-.9-.4-.9-.8v-4c0-.5.4-.9.9-.9.4 0 .8.4.8.9v4c0 .4-.4.8-.8.8zm-50.4 6.5c-.4 0-.8-.4-.8-.9v-4c0-.4.4-.8.8-.8.5 0 .9.4.9.8v4c0 .5-.4.9-.9.9zm50.4 1.5c-.5 0-.9-.4-.9-.9v-4c0-.4.4-.8.9-.8.4 0 .8.4.8.8v4c0 .5-.4.9-.8.9zM18.1 58c-.3 0-.7-.2-.8-.6-.2-.6-.3-1.2-.3-1.8v-2.4c0-.5.4-.9.8-.9.5 0 .9.4.9.9v2.4c0 .4.1.9.2 1.3s-.1.9-.5 1c-.1.1-.2.1-.3.1zm49.1 1.3c-.2 0-.4 0-.6-.2-.3-.3-.4-.8-.1-1.2.5-.6.8-1.4.8-2.3v-.9c0-.5.4-.8.9-.8.4 0 .8.3.8.8v.9c0 1.2-.4 2.4-1.2 3.4-.1.2-.4.3-.6.3zM24.6 61h-2.3c-.6 0-1.2-.1-1.8-.3-.5-.2-.7-.7-.5-1.1.1-.5.6-.7 1.1-.5.3.1.8.2 1.2.2h2.3c.5 0 .9.4.9.8 0 .5-.4.9-.9.9zm7.9 0h-3.9c-.5 0-.9-.4-.9-.9 0-.4.4-.8.9-.8h3.9c.4 0 .8.4.8.8 0 .5-.4.9-.8.9zm7.8 0h-3.9c-.5 0-.9-.4-.9-.9 0-.4.4-.8.9-.8h3.9c.4 0 .8.4.8.8 0 .5-.4.9-.8.9zm7.8 0h-3.9c-.5 0-.9-.4-.9-.9 0-.4.4-.8.9-.8h3.9c.5 0 .8.4.8.8 0 .5-.3.9-.8.9zm11.7 0c-.5 0-.8-.4-.8-.9 0-.4.3-.8.8-.8h3.9c.5 0 .9.4.9.8 0 .5-.4.9-.8.9v-.9l-.1.9h-3.9z" fill-opacity=".3" fill="#43484d"/><path fill="#E0E7ED" d="M39.9 60H29.2V31.6h10.7z"/><path d="M46.9 25h3.3M46.9 39h3.3M46.9 32h6.3M46.9 46h6.3M46.9 53h3.3M46.9 60h6.3" class="a"/><path d="M57.3 62.1c0 1.2-.9 2.2-2.1 2.2h-5.9c-.9 0-1.6-.7-1.6-1.6v-1.9H53c.4 0 .8-.4.8-.9 0-.4-.4-.8-.8-.8h-5.3v-5.3H50c.5 0 .9-.3.9-.8s-.4-.9-.9-.9h-2.3v-5.2H53c.4 0 .8-.4.8-.9 0-.4-.4-.8-.8-.8h-5.3v-5.3H50c.5 0 .9-.4.9-.8 0-.5-.4-.9-.9-.9h-2.3v-5.3H53c.4 0 .8-.3.8-.8s-.4-.8-.8-.8h-5.3V26H50c.5 0 .9-.4.9-.9 0-.4-.4-.8-.9-.8h-2.3v-3c0-.9.7-1.6 1.6-1.6h6.4c.9 0 1.6.7 1.6 1.6v40.8zM55.7 18h-6.4c-1.8 0-3.3 1.5-3.3 3.3v41.4c0 1.8 1.5 3.3 3.3 3.3h5.9c2.1 0 3.8-1.7 3.8-3.9V21.3c0-1.8-1.5-3.3-3.3-3.3z" fill="#43484D"/><path d="M29.9 31.6h9.3M29.2 60h10.7M34.5 31.6v27.8" class="a"/></g></svg>