<svg xmlns="http://www.w3.org/2000/svg" width="80" height="35" viewBox="189 1 80 35"><path d="M256 23.2c-28.7-2.3-52.4 4.8-57.9 7.4-2.9 1.4-3.2 3.1-2.8 4.1.4.8 1.8 1.2 3.4.3 11.4-6.1 34.5-11.1 57.3-9.7 1.1 0 1.6-1.9 0-2.1zm3.7-6.8c-.6-.5 0-2.1 0-2.1 2.8-1.7 8.3-6.5 8.3-10.1 0-3.4-2.9-4.4-6.1-1.3-2.2 2.1-4.3 5.9-5.4 9.9-1.7 1.6-4.2 3.7-6.5 3.7-1.2 0-1.6-.9-1.5-2 2-.1 7.5-1.7 7.5-6.3-.1-2-1.7-2.7-3.1-2.7-2.4 0-5.6 2.5-7.2 6.2-.4-.1-.8-.3-1.2-.5.5-1.1.9-2.1.9-2.8.3-1.8-.4-3.1-1.9-3-1 0-2.2.9-2.5 3-.2 1.4.6 3 .6 3-.7 2.1-3.4 4.8-4.4 4.8-.8 0 .2-3.9 1.1-6.8.6-.6 1.1-1.2 1.2-1.8.3-1-.1-1.4-.4-1.6-.7-.5-2.6-.3-3.6 1.5-.3.5-.6 1.3-1 2.2-.8.9-1.9 2.2-2.3 2-.6-.4 1.1-2.7.9-4.1C233 6.4 232 5.8 231 6c-1.5.2-3.5 3.2-3.5 3.2s.4-.9.4-1.7c-.1-1.1-2.2-1.7-3.2.5-.4.7-1 3.4-1.6 6-.5.9-2.1 3.7-3.4 3.8-1.1.2.2-4.9.4-5.1.5-1 1.3-2.9 1.2-3.8-.1-1.2-.8-1.5-1.6-1.3-1.1.2-1.7 1.3-1.7 1.3s-.6-.9-2-.8c-4.6.5-7.5 8.4-7.1 12.3.1 2.1 1.2 3.3 2.8 3.1 2.1-.2 3.7-3.2 3.7-3.2s.4 2.4 2.5 2c1.5-.2 2.9-1.4 4.1-2.8 0 .3-.1.5-.1.5-.3 2 3 1.9 3.2.2 1.1-7.5 3.6-10.7 4.4-10.7.6 0-1.7 3.6-.3 5 1 1.2 2.7.2 4.1-1-.2 1-.3 2-.4 3 0 2.2.8 3.9 2.9 3.8 2.7-.1 5.6-3.5 7.5-6.8.5.3 1 .6 1.7.7-.2.8-.2 1.6-.2 2.4.2 2.6 1.9 3.5 3.9 3.4 2.3 0 5-1.8 6.9-3.4v.2c-.1 1.2 0 3.5 1.7 3.6 2.1.2 5.5-1.8 7.2-4 1.2-1.6-.3-3-1.3-1.9-1.2 1.4-3 2.5-3.5 1.9zM265 4.1c.2 0 .3.1.3.4 0 2.2-5.3 6.7-5.3 6.7s3.5-7.1 5-7.1zM216.6 12c-.2 1.3-2.4 7.1-3.6 7.1-1.5 0 .8-8.2 3.3-8.2.4 0 .4.4.3 1.1zm35.6-3.3c.5 0 .7.2.7.7 0 1.1-1.6 2-3.4 2.2.8-1.6 1.9-2.9 2.7-2.9zm-55 4.9c1.5 0-1.2 7.7-.9 11.1.3 3.3 4.1 2.4 3.8.4-.4-3.3 1.8-13.7 4.1-13.7 1.6 0-1.8 7.2-1.1 11.8.4 3 4.4 1.9 4 .2-1.4-6 2.7-11.7 2.3-15.8-.2-1.7-1.3-2.6-2.4-2.6-3.7 0-6.6 7.6-6.6 7.6s.3-4.3-2.6-4.5c-4.5-.2-8.9 10.9-8.8 20.8 0 3.2 4 2.6 3.8.1-.4-4.7 2.2-15.4 4.4-15.4z" fill="#FFF"/></svg>