<svg xmlns="http://www.w3.org/2000/svg" width="157" height="31" viewBox="507 3 157 31"><path d="M508 18.1c0 8.2 6.7 14.9 15.1 14.9 8.1 0 14.9-6.8 14.9-14.9C538 9.7 531.2 3 523.1 3 514.7 3 508 9.7 508 18.1zm10.6-11.8l4.5 14.9 4.5-14.9 5.7 19.1h-.9s-.3-1-.7-1.9c-1.2-4.3-2.9-5.9-5.4-5-.6.2-1.5 1-2 1.8-.4.7-1 1.9-1.2 2.9-.3-1-.9-2.2-1.3-2.9-.5-.8-1.4-1.6-2-1.8-2.5-.9-4.2.7-5.4 5-.4.9-.7 1.9-.7 1.9h-.9l5.8-19.1zm55.8 6.5c-.8 0-1.7.1-2.4.3-2.5.5-5.4 2.3-5.9 5.1-.2 1.6.5 2.9 1.8 3.8 1.8 1 3.8 1.3 5.9 1.2 1.5-.1 3.1-.5 4.4-1.2 1.3-.8 2.4-1.9 2.9-3.5.5-.9.4-2.2-.1-3.1-1.7-2-4.1-2.6-6.6-2.6zm27.5 0c-.8 0-1.7.1-2.5.3-2.4.5-5.3 2.3-5.9 5.1-.2 1.6.6 2.9 1.9 3.8 1.7 1 3.8 1.3 5.9 1.2 1.5-.1 3-.5 4.3-1.2 1.4-.8 2.5-1.9 3-3.5.4-.9.4-2.2-.2-3.1-1.6-2-4.1-2.6-6.5-2.6zm29.8 0c-.8 0-1.7.1-2.5.3-2.4.5-5.3 2.3-5.9 5.1-.2 1.6.6 2.9 1.9 3.8 1.7 1 3.8 1.3 5.9 1.2 1.5-.1 3-.5 4.3-1.2 1.4-.8 2.5-1.9 3-3.5.5-.9.4-2.2-.2-3.1-1.6-2-4.1-2.6-6.5-2.6zm-80.7.1l-2.8 10.2h3.3s1.4-5.3 1.5-5.3c0-.2.1-.2 0-.2h.2l1.2 5.5h2.2l4.3-5.3c.1-.1.1-.1 0 0l-1.4 5.3h4.1l2.8-10.2h-5.5l-3.5 4.4-1.1-4.4H551zm31.5 0l-.9 3.3h4c.2 0 .2.1.2.2l-1.7 6.7h3.8l2.1-6.9v-.1h4.2l.7-3.2h-12.4zm28.7 0c-.8 3.4-1.7 6.8-2.5 10.2h3.8l.7-3h3.3c.5 0 .7.3.8.8l-.2 1.2v.5c.2.3.3.4.5.5h4.5c-.2-.3-.5-.6-.5-1 0-.7.3-1.5.2-2.3-.2-.6-.8-.9-1.3-1.1-.1-.1 0-.1 0-.2 1.1-.4 2.2-1.1 2.7-2.3.3-.7.2-1.8-.5-2.3-.5-.6-1.3-1-2-1h-9.5zm29.8 0l-2.3 10.2h10.1l.6-3h-5.9v-.2l1.6-7H641zm15.1 0l-6.5 10.2h3.4l1.1-1.9h4.8v.1l.4 1.8h4.2l-2.3-10.2h-5.1zm-81.7 2.5c.7 0 1.4.2 1.9.5.4.3.6.6.8.9.1 1.1-.3 2.1-1.3 2.8-1 .9-2.6 1.3-4 .7-.5-.2-1-.7-1.1-1.3-.1-1.2.6-2.4 1.7-3.1.6-.3 1.3-.5 2-.5zm27.7 0c.6 0 1.4.2 1.8.5.4.3.6.6.8.9.2 1.1-.3 2.1-1.2 2.8-1.1.9-2.6 1.3-4.1.7-.4-.2-1-.7-1.1-1.3-.1-1.2.6-2.4 1.7-3.1.6-.3 1.3-.5 2.1-.5zm29.6 0c.7 0 1.4.2 1.9.5.3.3.6.6.8.9.1 1.1-.4 2.1-1.3 2.8-1 .9-2.6 1.3-4 .7-.5-.2-1-.7-1.1-1.3-.1-1.2.6-2.4 1.7-3.1.6-.3 1.3-.5 2-.5zm-15.5.2h2.3c.3 0 .5.2.6.5.1.2 0 .5-.3.7-.2.3-.5.5-.9.5H614l.5-1.7h1.7zm41.3.6l.6 2.5h-2.3l1.7-2.5z" fill="#FFF"/></svg>