<svg xmlns="http://www.w3.org/2000/svg" width="96" height="27" viewBox="714 5 96 27"><path d="M795.9 29.4c1.3.1 2.6.2 4 .4l2.9-7.3 2.8 7.9c1.4.2 2.9.4 4.3.6L805 17.1 809.9 5h-4.2v.1l-2.7 6.5-2.3-6.6h-4.1l4.2 12-4.9 12.4zm-3.2-.3V5h-4v23.7c1.3.1 2.7.2 4 .4zM762 27.7h3.3v-8.8h4.9v-3.8h-4.9V8.8h5.7V5h-9.8v22.7h.8zm-12.7.3c1.3-.1 2.7-.1 4.1-.2v-19h3.8V5h-11.8v3.8h3.9V28zm-31.4 2.5V16.2l4.9 13.7c1.5-.2 3-.3 4.5-.5V5h-4v14.8L718.1 5H714v26c1.3-.2 2.6-.3 3.9-.5zm23.6-21.7V5h-9.8v24c3.2-.2 6.5-.5 9.8-.7v-3.7l-5.7.3v-6h4.9v-3.8h-4.9V8.8h5.7zm37.6 15.6V5H775v23c3.2.1 6.5.2 9.8.5v-3.8l-5.7-.3z" fill="#FFF"/></svg>